<svg xmlns="http://www.w3.org/2000/svg" viewBox="0 0 1600 1000" preserveAspectRatio="xMidYMid slice">
  <defs>
    <radialGradient id="ember" cx="50%" cy="78%" r="48%">
      <stop offset="0%" stop-color="#e94b22" stop-opacity="0.82"/>
      <stop offset="42%" stop-color="#6f1f0e" stop-opacity="0.55"/>
      <stop offset="100%" stop-color="#050505" stop-opacity="0"/>
    </radialGradient>
    <linearGradient id="steel" x1="0" x2="1">
      <stop offset="0" stop-color="#111"/>
      <stop offset="0.5" stop-color="#303030"/>
      <stop offset="1" stop-color="#0b0b0b"/>
    </linearGradient>
    <filter id="softSmoke">
      <feGaussianBlur stdDeviation="18"/>
    </filter>
  </defs>

  <rect width="1600" height="1000" fill="#050505"/>
  <rect width="1600" height="1000" fill="url(#ember)" opacity="0.9"/>

  <g opacity="0.5" filter="url(#softSmoke)">
    <path d="M205 830c-80-130 90-184 14-310-50-83 42-146 142-190" fill="none" stroke="#d7d7d7" stroke-width="42" stroke-linecap="round"/>
    <path d="M675 850c-118-150 110-205 22-345-61-97 88-151 205-230" fill="none" stroke="#f2f2f2" stroke-width="54" stroke-linecap="round"/>
    <path d="M1265 840c-95-129 82-196 20-306-50-88 52-154 160-229" fill="none" stroke="#d0d0d0" stroke-width="46" stroke-linecap="round"/>
  </g>

  <g transform="translate(170 555)">
    <rect x="0" y="135" width="1260" height="70" rx="35" fill="url(#steel)"/>
    <rect x="86" y="0" width="1088" height="190" rx="95" fill="#121212" stroke="#3a3a3a" stroke-width="12"/>
    <g stroke="#d7d7d7" stroke-width="10" stroke-linecap="round" opacity="0.72">
      <path d="M145 75h975"/>
      <path d="M145 115h975"/>
      <path d="M145 155h975"/>
      <path d="M230 28v160"/>
      <path d="M365 28v160"/>
      <path d="M500 28v160"/>
      <path d="M635 28v160"/>
      <path d="M770 28v160"/>
      <path d="M905 28v160"/>
      <path d="M1040 28v160"/>
    </g>
  </g>

  <g transform="translate(255 455) rotate(-8)">
    <rect x="0" y="20" width="410" height="135" rx="68" fill="#65150b"/>
    <g fill="none" stroke="#f6b44b" stroke-width="12" stroke-linecap="round">
      <path d="M55 55c56 22 104 22 145 0s88-21 142 0"/>
      <path d="M44 96c59 24 112 24 159 0s93-22 157 0"/>
      <path d="M70 135c53 18 100 18 140 0s86-18 137 0"/>
    </g>
    <text x="205" y="105" text-anchor="middle" fill="#fff7ed" font-family="Arial Black, Impact, sans-serif" font-size="48">RIBS</text>
  </g>

  <g transform="translate(690 430) rotate(7)">
    <path d="M105 26c108-36 250 8 286 99 39 99-37 211-157 232-111 19-216-43-242-144-22-86 20-159 113-187z" fill="#a94117"/>
    <path d="M95 75c100-36 217 2 249 79 31 75-24 156-125 181-94 23-190-20-221-98-29-72 7-132 97-162z" fill="#f6b44b" opacity="0.55"/>
    <path d="M120 105c68-18 133 3 156 51" fill="none" stroke="#fff7ed" stroke-width="18" stroke-linecap="round" opacity="0.8"/>
    <text x="200" y="215" text-anchor="middle" fill="#fff7ed" font-family="Arial Black, Impact, sans-serif" font-size="42">CHICKEN</text>
  </g>

  <g transform="translate(1040 405) rotate(-5)">
    <path d="M33 125c42-95 154-142 271-114 122 29 209 121 195 207-15 92-134 147-270 124C88 318-16 236 33 125z" fill="#4a1309"/>
    <path d="M88 140c37-60 115-91 199-73 82 17 144 73 140 127-5 59-88 98-184 86-103-13-189-76-155-140z" fill="#9b2c13"/>
    <path d="M132 126c74-35 179-13 226 48" fill="none" stroke="#f6b44b" stroke-width="16" stroke-linecap="round"/>
    <path d="M116 205c80 44 179 49 263 12" fill="none" stroke="#fff7ed" stroke-width="12" stroke-linecap="round" opacity="0.55"/>
    <text x="255" y="195" text-anchor="middle" fill="#fff7ed" font-family="Arial Black, Impact, sans-serif" font-size="54">STEAK</text>
  </g>

  <rect width="1600" height="1000" fill="#000" opacity="0.38"/>
</svg>
